<?xml version="1.0" standalone="no"?>
<!DOCTYPE svg PUBLIC "-//W3C//DTD SVG 20010904//EN"
 "http://www.w3.org/TR/2001/REC-SVG-20010904/DTD/svg10.dtd">
<svg version="1.0" xmlns="http://www.w3.org/2000/svg"
 width="512.000000pt" height="512.000000pt" viewBox="0 0 512.000000 512.000000"
 preserveAspectRatio="xMidYMid meet">

<g transform="translate(0.000000,512.000000) scale(0.100000,-0.100000)"
fill="#000000" stroke="none">
<path d="M2361 5110 c-442 -37 -865 -184 -1222 -426 -164 -110 -242 -175 -394
-328 -401 -404 -644 -897 -721 -1466 -23 -169 -23 -491 0 -660 99 -727 488
-1362 1090 -1778 577 -400 1319 -542 2011 -386 363 81 753 271 1041 505 903
733 1199 1964 729 3031 -157 357 -435 715 -743 959 -127 101 -405 279 -386
248 4 -8 104 -141 221 -297 281 -373 328 -467 340 -689 34 -602 -540 -1042
-1112 -852 -281 93 -499 337 -561 628 -21 99 -18 269 6 371 38 157 84 232 394
640 157 206 285 378 286 381 0 8 -120 42 -236 68 -209 47 -531 69 -743 51z
m-943 -821 c124 -161 145 -202 146 -285 0 -112 -70 -211 -177 -251 -42 -15
-120 -16 -169 -1 -52 15 -131 87 -157 141 -24 49 -28 143 -10 198 21 60 232
343 252 337 7 -3 58 -65 115 -139z m592 -417 c14 -11 238 -302 498 -648 502
-669 549 -740 605 -920 48 -153 60 -243 54 -424 -5 -189 -27 -291 -95 -448
-212 -491 -727 -797 -1252 -743 -335 35 -636 196 -842 451 -178 220 -265 451
-275 731 -9 225 23 389 111 575 59 124 68 137 584 822 338 449 462 608 486
618 38 17 92 11 126 -14z m1864 -2508 c60 -81 114 -162 122 -180 18 -43 18
-155 0 -198 -20 -47 -82 -114 -129 -137 -57 -30 -123 -34 -193 -14 -47 13 -69
27 -109 68 -31 32 -55 68 -63 93 -17 59 -15 152 6 196 26 57 225 317 243 318
8 0 63 -64 123 -146z"/>
<path d="M1555 2726 c-65 -21 -99 -42 -139 -87 -64 -70 -81 -119 -81 -234 0
-87 3 -107 26 -156 85 -181 295 -235 438 -112 146 124 161 359 32 506 -64 72
-192 111 -276 83z m144 -164 c40 -30 71 -98 71 -156 -1 -96 -55 -173 -130
-183 -137 -19 -218 181 -123 305 47 62 125 76 182 34z"/>
<path d="M2181 2663 c-26 -22 -531 -1224 -531 -1264 0 -55 69 -89 113 -56 20
14 537 1237 537 1268 0 28 -44 69 -73 69 -14 0 -34 -8 -46 -17z"/>
<path d="M2194 1886 c-64 -30 -116 -83 -152 -155 -24 -49 -27 -68 -27 -151 0
-82 4 -103 27 -152 29 -63 90 -127 146 -154 46 -22 158 -30 206 -14 61 20 129
81 166 151 33 61 35 69 35 165 0 96 -2 105 -35 170 -74 144 -229 204 -366 140z
m176 -141 c100 -52 108 -255 13 -323 -46 -33 -83 -35 -133 -10 -147 75 -106
347 53 348 21 0 51 -7 67 -15z"/>
</g>
</svg>
